<svg xmlns="http://www.w3.org/2000/svg" width="410" height="404" viewBox="0 0 410 404" fill="none">
  <path d="M399.641 59.5241L217.918 386.817C214.668 392.611 206.332 392.611 203.082 386.817L10.3594 59.5241C6.77969 52.8417 12.6543 45.1026 20.0336 46.2368L205.267 78.4572C206.551 78.6547 207.849 78.6547 209.133 78.4572L389.967 46.2368C397.346 45.1026 403.221 52.8417 399.641 59.5241Z" fill="url(#paint0_linear)"/>
  <path d="M292.965 1.57498L158.042 27.9502C155.875 28.373 154.275 30.2118 154.159 32.416L145.962 189.102C145.767 192.836 149.165 195.718 152.775 194.702L190.56 184.078C194.19 183.057 197.602 185.985 197.362 189.743L186.688 357.093C186.438 361.013 191.206 363.346 194.275 360.694L196.322 358.932C197.788 357.667 198.828 355.978 199.298 354.09L303.46 19.7316C304.581 16.1609 301.313 12.906 297.745 13.6442L256.975 22.0649C253.348 22.8143 250.062 19.6165 250.785 15.9795L258.912 2.85778C259.635 -0.771092 256.352 -3.96839 252.727 -3.22152L292.965 1.57498Z" fill="url(#paint1_linear)"/>
  <defs>
    <linearGradient id="paint0_linear" x1="6.00017" y1="32.9999" x2="235" y2="344" gradientUnits="userSpaceOnUse">
      <stop stop-color="#41D1FF"/>
      <stop offset="1" stop-color="#BD34FE"/>
    </linearGradient>
    <linearGradient id="paint1_linear" x1="194.651" y1="8.81818" x2="236.379" y2="292.989" gradientUnits="userSpaceOnUse">
      <stop stop-color="#FFEA83"/>
      <stop offset="0.0833333" stop-color="#FFDD35"/>
      <stop offset="1" stop-color="#FFA800"/>
    </linearGradient>
  </defs>
</svg>
