<svg xmlns="http://www.w3.org/2000/svg" width="410" height="404" viewBox="0 0 841.9 595.3" fill="none">
  <g fill="#61DAFB">
    <path d="M666.3 296.5c0-32.5-40.7-63.3-103.1-82.4 14.4-63.6 8-114.2-20.2-130.4-6.5-3.8-14.1-5.6-22.4-5.6v22.3c4.6 0 8.3.9 11.4 2.6 13.6 7.8 19.5 37.5 14.9 75.7-1.1 9.4-2.9 19.3-5.1 29.4-19.6-4.8-41-8.5-63.5-10.9-13.5-18.5-27.5-35.3-41.6-50 32.6-30.3 63.2-46.9 84-46.9V78c-27.5 0-63.5 19.6-99.9 53.6-36.4-34-72.4-53.6-99.9-53.6v22.3c20.7 0 51.4 16.5 84 46.9-14.1 14.7-28.1 31.4-41.6 50-22.6 2.4-44 6.1-63.6 11-2.3-10-4-19.7-5.2-29-4.7-38.2 1.1-67.9 14.6-75.8 3-1.8 6.9-2.6 11.5-2.6V78c-8.4 0-16 1.8-22.6 5.6-28.1 16.2-34.4 66.7-19.9 130.1-62.2 19.2-102.7 49.9-102.7 82.3 0 32.5 40.7 63.3 103.1 82.4-14.4 63.6-8 114.2 20.2 130.4 6.5 3.8 14.1 5.6 22.4 5.6 27.5 0 63.5-19.6 99.9-53.6 36.4 34 72.4 53.6 99.9 53.6 8.4 0 16-1.8 22.6-5.6 28.1-16.2 34.4-66.7 19.9-130.1 62.2-19.2 102.7-49.9 102.7-82.3zm-130.2-66.7c-3.7 12.9-8.3 26.2-13.5 39.5-4.1-8-8.5-16.1-13.1-24.3-4.6-8.2-9.5-16.4-14.6-24.6 14.9 2.1 29.2 4.8 42.5 8.1 1.6.4 3.2.8 4.7 1.3zm-29.5 104.5c-7.2 12.1-14.9 23.6-22.9 34.3-14.9 1.3-30.5 2-46.5 2-16 0-31.6-.7-46.5-2-8-10.7-15.7-22.2-22.9-34.3-7.2-12.1-13.6-24.7-19.3-37.7 5.7-13 12.1-25.6 19.3-37.7 7.2-12.1 14.9-23.6 22.9-34.3 14.9-1.3 30.5-2 46.5-2 16 0 31.6.7 46.5 2 8 10.7 15.7 22.2 22.9 34.3 7.2 12.1 13.6 24.7 19.3 37.7-5.7 13-12.1 25.6-19.3 37.7zm32.3-13c5.4 13.4 10 26.8 13.8 39.8-1.5.4-3.1.9-4.7 1.3-13.2 3.3-27.5 6.1-42.5 8.2 5-8.2 9.9-16.4 14.5-24.6 4.6-8.1 8.9-16.3 12.9-24.7zm-6.1-60.9c-4-8.4-8.4-16.7-13-24.8-4.6-8.1-9.4-16.1-14.4-23.9 14.9 2.1 29.2 4.8 42.5 8.1 1.6.4 3.2.8 4.7 1.3-3.7 13.2-8.4 26.6-13.8 40.3zm-128.5-125.8c10.2 11 20.2 23.5 30 37.4-9.6-.4-19.3-.7-29-.7-9.8 0-19.5.2-29.1.7 9.8-13.9 19.9-26.4 30.1-37.4zm-68.6 197.1c-9.8.4-19.5.7-29.1.7-9.7 0-19.4-.2-29-.7-9.8-13.9-19.9-26.4-30.1-37.4 10.2-11 20.2-23.5 30.1-37.4 9.6.4 19.3.7 29 .7 9.8 0 19.5-.2 29.1-.7-9.8 13.9-19.9 26.4-30 37.4 10.1 11 20.2 23.5 30 37.4zm-68.6-62.1c-5 7.8-9.8 15.8-14.4 23.9-4.6 8.1-9 16.4-13 24.8-5.4-13.6-10.1-27.1-13.8-40.3 1.5-.5 3.1-.9 4.7-1.3 13.3-3.2 27.6-5.9 42.5-8.1zm-7.6-60.9c1.6-.4 3.2-.8 4.7-1.3 13.3-3.2 27.6-5.9 42.5-8.1-5 7.8-9.8 15.8-14.4 23.9-4.6 8.1-9 16.4-13 24.8-5.4-13.7-10.1-27.1-13.8-40.3zm182.6-12.9c9.8-.4 19.5-.7 29.1-.7 9.7 0 19.4.2 29 .7 9.8 13.9 19.9 26.4 30.1 37.4-10.2 11-20.2 23.5-30.1 37.4-9.6-.4-19.3-.7-29-.7-9.8 0-19.5.2-29.1.7 9.8-13.9 19.9-26.4 30-37.4-10.1-11-20.2-23.5-30-37.4zm-36.6 212.3c-10.2-11-20.2-23.5-30-37.4 9.6.4 19.3.7 29 .7 9.8 0 19.5-.2 29.1-.7-9.8 13.9-19.9 26.4-30.1 37.4zm-67.1-47.6c-32.6 30.3-63.2 46.9-84 46.9-4.6 0-8.3-.9-11.4-2.6-13.6-7.8-19.5-37.5-14.9-75.7 1.1-9.4 2.9-19.3 5.1-29.4 19.6 4.8 41 8.5 63.5 10.9 13.5 18.5 27.5 35.3 41.6 50-32.5 30.2-63.1 46.8-83.9 46.8zm40.1 11.9c-32.6 30.3-63.2 46.9-84 46.9-4.6 0-8.3-.9-11.4-2.6-13.6-7.8-19.5-37.5-14.9-75.7 1.1-9.4 2.9-19.3 5.1-29.4 19.6 4.8 41 8.5 63.5 10.9 13.5 18.5 27.5 35.3 41.6 50-11.7 10.8-23.4 19.8-34.9 27zm170.9-27c-3 1.8-6.9 2.6-11.5 2.6-20.7 0-51.4-16.5-84-46.9 14.1-14.7 28.1-31.4 41.6-50 22.6-2.4 44-6.1 63.6-11 2.3 10 4 19.7 5.2 29 4.7 38.2-1.1 67.9-14.6 75.8z"/>
    <path d="M420.9 330c-18.7 0-34-15.3-34-34s15.3-34 34-34 34 15.3 34 34-15.3 34-34 34z"/>
  </g>
</svg>
